<svg width="204" height="59" viewBox="0 0 204 59" fill="none" xmlns="http://www.w3.org/2000/svg">
<path d="M196.396 59.0049H7.55371C3.40106 59.0049 0 55.6843 0 51.6299V7.37989C0 3.32548 3.40106 0.00488357 7.55371 0.00488357H196.396C200.549 0.00488357 203.95 3.32548 203.95 7.37989V51.6299C203.95 55.6843 200.549 59.0049 196.396 59.0049Z" fill="#111927"/>
<path d="M196.396 1.18672C199.894 1.18672 202.74 3.96526 202.74 7.37989V51.6299C202.74 55.0445 199.894 57.823 196.396 57.823H7.55371C4.05634 57.823 1.21048 55.0445 1.21048 51.6299V7.37989C1.21048 3.96526 4.05634 1.18672 7.55371 1.18672H196.396ZM196.396 0.00488357H7.55371C3.40106 0.00488357 0 3.32548 0 7.37989V51.6299C0 55.6843 3.40106 59.0049 7.55371 59.0049H196.396C200.549 59.0049 203.95 55.6843 203.95 51.6299V7.37989C203.95 3.32548 200.549 0.00488357 196.396 0.00488357Z" fill="#111927"/>
<path d="M71.6358 15.1145C71.6358 16.3461 71.2581 17.3325 70.5141 18.0682C69.6586 18.9403 68.5444 19.3791 67.1791 19.3791C65.8742 19.3791 64.76 18.9329 63.846 18.0535C62.9301 17.1611 62.4731 16.0659 62.4731 14.755C62.4731 13.4441 62.9301 12.3489 63.846 11.4639C64.76 10.577 65.8742 10.1309 67.1791 10.1309C67.8287 10.1309 68.4481 10.2618 69.0392 10.5051C69.6284 10.7504 70.108 11.0822 70.4555 11.4915L69.6662 12.2696C69.06 11.5708 68.2347 11.226 67.1791 11.226C66.2273 11.226 65.4021 11.5505 64.7015 12.2051C64.0084 12.8615 63.661 13.7114 63.661 14.755C63.661 15.7985 64.0084 16.6559 64.7015 17.3123C65.4021 17.9594 66.2273 18.2913 67.1791 18.2913C68.1894 18.2913 69.0392 17.9594 69.7096 17.3049C70.1515 16.8716 70.4027 16.2742 70.4687 15.5109H67.1791V14.4452H71.5678C71.6207 14.6757 71.6358 14.8988 71.6358 15.1145Z" fill="white"/>
<path d="M78.5981 11.4195H74.4756V14.222H78.1921V15.2876H74.4756V18.0901H78.5981V19.1761H73.3086V10.3335H78.5981V11.4195Z" fill="white"/>
<path d="M83.5121 19.1761H82.345V11.4195H79.8164V10.3335H86.0425V11.4195H83.5121V19.1761Z" fill="white"/>
<path d="M90.5483 19.1761V10.3335H91.7135V19.1761H90.5483Z" fill="white"/>
<path d="M96.8783 19.1761H95.7207V11.4195H93.1826V10.3335H99.4163V11.4195H96.8783V19.1761Z" fill="white"/>
<path d="M111.204 18.0387C110.31 18.9329 109.204 19.3791 107.884 19.3791C106.556 19.3791 105.45 18.9329 104.556 18.0387C103.665 17.1463 103.221 16.0511 103.221 14.755C103.221 13.4588 103.665 12.3636 104.556 11.4713C105.45 10.577 106.556 10.1309 107.884 10.1309C109.196 10.1309 110.303 10.577 111.196 11.4786C112.095 12.3784 112.539 13.4662 112.539 14.755C112.539 16.0511 112.095 17.1463 111.204 18.0387ZM105.419 17.2975C106.092 17.9594 106.909 18.2913 107.884 18.2913C108.851 18.2913 109.676 17.9594 110.341 17.2975C111.011 16.6356 111.351 15.7856 111.351 14.755C111.351 13.7243 111.011 12.8744 110.341 12.2125C109.676 11.5505 108.851 11.2187 107.884 11.2187C106.909 11.2187 106.092 11.5505 105.419 12.2125C104.749 12.8744 104.409 13.7243 104.409 14.755C104.409 15.7856 104.749 16.6356 105.419 17.2975Z" fill="white"/>
<path d="M114.176 19.1761V10.3335H115.593L119.996 17.2107H120.047L119.996 15.5107V10.3335H121.162V19.1761H119.945L115.334 11.9597H115.283L115.334 13.667V19.1761H114.176Z" fill="white"/>
<path d="M102.934 32.0897C99.3861 32.0897 96.4874 34.7262 96.4874 38.364C96.4874 41.9722 99.3861 44.6364 102.934 44.6364C106.49 44.6364 109.389 41.9722 109.389 38.364C109.389 34.7262 106.49 32.0897 102.934 32.0897ZM102.934 42.1658C100.988 42.1658 99.3125 40.5967 99.3125 38.364C99.3125 36.1017 100.988 34.5603 102.934 34.5603C104.881 34.5603 106.564 36.1017 106.564 38.364C106.564 40.5967 104.881 42.1658 102.934 42.1658ZM88.8676 32.0897C85.3117 32.0897 82.4205 34.7262 82.4205 38.364C82.4205 41.9722 85.3117 44.6364 88.8676 44.6364C92.4216 44.6364 95.3147 41.9722 95.3147 38.364C95.3147 34.7262 92.4216 32.0897 88.8676 32.0897ZM88.8676 42.1658C86.9187 42.1658 85.2381 40.5967 85.2381 38.364C85.2381 36.1017 86.9187 34.5603 88.8676 34.5603C90.8146 34.5603 92.4896 36.1017 92.4896 38.364C92.4896 40.5967 90.8146 42.1658 88.8676 42.1658ZM72.1286 34.0127V36.6788H78.6493C78.4586 38.1685 77.9487 39.2637 77.1669 40.027C76.2152 40.9489 74.7327 41.9722 72.1286 41.9722C68.1157 41.9722 64.9734 38.8101 64.9734 34.8922C64.9734 30.9742 68.1157 27.8122 72.1286 27.8122C74.2984 27.8122 75.8771 28.64 77.0423 29.7131L78.9666 27.8343C77.3369 26.315 75.169 25.148 72.1286 25.148C66.6257 25.148 62.001 29.5195 62.001 34.8922C62.001 40.2649 66.6257 44.6364 72.1286 44.6364C75.1029 44.6364 77.3369 43.685 79.0931 41.9003C80.8928 40.1432 81.4536 37.6725 81.4536 35.6776C81.4536 35.0581 81.4008 34.4884 81.3064 34.0127H72.1286ZM140.576 36.0795C140.046 34.6765 138.409 32.0897 135.074 32.0897C131.769 32.0897 129.017 34.6322 129.017 38.364C129.017 41.8781 131.741 44.6364 135.391 44.6364C138.342 44.6364 140.046 42.8793 140.746 41.856L138.556 40.4308C137.825 41.4744 136.83 42.1658 135.391 42.1658C133.961 42.1658 132.936 41.526 132.279 40.2649L140.873 36.7931L140.576 36.0795ZM131.814 38.1685C131.741 35.7495 133.738 34.5105 135.17 34.5105C136.292 34.5105 137.243 35.0581 137.561 35.8417L131.814 38.1685ZM124.829 44.2547H127.654V25.8172H124.829V44.2547ZM120.202 33.4872H120.108C119.473 32.7534 118.263 32.0897 116.729 32.0897C113.512 32.0897 110.569 34.8479 110.569 38.3842C110.569 41.9003 113.512 44.6364 116.729 44.6364C118.263 44.6364 119.473 43.9671 120.108 43.2112H120.202V44.1109C120.202 46.5096 118.89 47.7984 116.773 47.7984C115.047 47.7984 113.976 46.5815 113.534 45.5583L111.077 46.5594C111.786 48.2225 113.661 50.269 116.773 50.269C120.085 50.269 122.88 48.3663 122.88 43.7366V32.4713H120.202V33.4872ZM116.971 42.1658C115.024 42.1658 113.394 40.5746 113.394 38.3842C113.394 36.1736 115.024 34.5603 116.971 34.5603C118.89 34.5603 120.402 36.1736 120.402 38.3842C120.402 40.5746 118.89 42.1658 116.971 42.1658ZM153.803 25.8172H147.046V44.2547H149.864V37.2688H153.803C156.932 37.2688 160.001 35.0581 160.001 31.5421C160.001 28.0279 156.925 25.8172 153.803 25.8172ZM153.877 34.7041H149.864V28.3819H153.877C155.98 28.3819 157.181 30.0874 157.181 31.5421C157.181 32.9691 155.98 34.7041 153.877 34.7041ZM171.294 32.0546C169.258 32.0546 167.141 32.9323 166.27 34.8774L168.771 35.9007C169.309 34.8774 170.298 34.5455 171.345 34.5455C172.806 34.5455 174.289 35.4029 174.311 36.9166V37.1102C173.801 36.8226 172.71 36.3967 171.367 36.3967C168.674 36.3967 165.93 37.844 165.93 40.5451C165.93 43.0157 168.136 44.6069 170.616 44.6069C172.512 44.6069 173.558 43.7717 174.215 42.8H174.311V44.2252H177.033V37.1526C177.033 33.8836 174.532 32.0546 171.294 32.0546ZM170.954 42.1584C170.032 42.1584 168.748 41.7122 168.748 40.5967C168.748 39.1697 170.349 38.6221 171.736 38.6221C172.976 38.6221 173.558 38.8894 174.311 39.2416C174.09 40.9489 172.585 42.1584 170.954 42.1584ZM186.947 32.4584L183.708 40.4511H183.612L180.264 32.4584H177.225L182.256 43.6279L179.386 49.8431H182.33L190.082 32.4584H186.947ZM161.549 44.2547H164.374V25.8172H161.549V44.2547Z" fill="white"/>
<path d="M15.7646 11.1246C15.3208 11.5781 15.064 12.2843 15.064 13.1988V45.8184C15.064 46.7329 15.3208 47.4391 15.7646 47.8926L15.8741 47.9922L34.5959 29.7206V29.2892L15.8741 11.0176L15.7646 11.1246Z" fill="url(#paint0_linear_5227_19811)"/>
<path d="M40.8294 35.814L34.5957 29.7204V29.2889L40.837 23.1953L40.9767 23.2746L48.368 27.3807C50.4774 28.5459 50.4774 30.4634 48.368 31.636L40.9767 35.7347L40.8294 35.814Z" fill="url(#paint1_linear_5227_19811)"/>
<path d="M40.977 35.7348L34.596 29.5048L15.7646 47.8925C16.4653 48.6115 17.6078 48.6982 18.907 47.9791L40.977 35.7348Z" fill="url(#paint2_linear_5227_19811)"/>
<path d="M40.977 23.2749L18.907 11.0305C17.6078 10.3188 16.4653 10.4055 15.7646 11.1245L34.596 29.5049L40.977 23.2749Z" fill="url(#paint3_linear_5227_19811)"/>
<defs>
<linearGradient id="paint0_linear_5227_19811" x1="32.9337" y1="46.1581" x2="8.18673" y2="20.8115" gradientUnits="userSpaceOnUse">
<stop stop-color="#00A0FF"/>
<stop offset="0.0066" stop-color="#00A1FF"/>
<stop offset="0.2601" stop-color="#00BEFF"/>
<stop offset="0.5122" stop-color="#00D2FF"/>
<stop offset="0.7604" stop-color="#00DFFF"/>
<stop offset="1" stop-color="#00E3FF"/>
</linearGradient>
<linearGradient id="paint1_linear_5227_19811" x1="51.1147" y1="29.5026" x2="14.5595" y2="29.5026" gradientUnits="userSpaceOnUse">
<stop stop-color="#FFE000"/>
<stop offset="0.4087" stop-color="#FFBD00"/>
<stop offset="0.7754" stop-color="#FFA500"/>
<stop offset="1" stop-color="#FF9C00"/>
</linearGradient>
<linearGradient id="paint2_linear_5227_19811" x1="37.5072" y1="26.118" x2="3.94836" y2="-8.25404" gradientUnits="userSpaceOnUse">
<stop stop-color="#FF3A44"/>
<stop offset="1" stop-color="#C31162"/>
</linearGradient>
<linearGradient id="paint3_linear_5227_19811" x1="11.0244" y1="58.745" x2="26.0099" y2="43.3965" gradientUnits="userSpaceOnUse">
<stop stop-color="#32A071"/>
<stop offset="0.0685" stop-color="#2DA771"/>
<stop offset="0.4762" stop-color="#15CF74"/>
<stop offset="0.8009" stop-color="#06E775"/>
<stop offset="1" stop-color="#00F076"/>
</linearGradient>
</defs>
</svg>
