<svg width="376" height="394" viewBox="0 0 376 394" fill="none" xmlns="http://www.w3.org/2000/svg">
<g opacity="0.5" clip-path="url(#clip0_5256_33896)">
<mask id="mask0_5256_33896" style="mask-type:alpha" maskUnits="userSpaceOnUse" x="-320" y="-155" width="1040" height="692">
<g clip-path="url(#paint0_diamond_5256_33896_clip_path)" data-figma-skip-parse="true"><g transform="matrix(0 0.376812 -0.876393 0 200 144.369)"><rect x="0" y="0" width="1043.4" height="593.953" fill="url(#paint0_diamond_5256_33896)" opacity="1" shape-rendering="crispEdges"/><rect x="0" y="0" width="1043.4" height="593.953" transform="scale(1 -1)" fill="url(#paint0_diamond_5256_33896)" opacity="1" shape-rendering="crispEdges"/><rect x="0" y="0" width="1043.4" height="593.953" transform="scale(-1 1)" fill="url(#paint0_diamond_5256_33896)" opacity="1" shape-rendering="crispEdges"/><rect x="0" y="0" width="1043.4" height="593.953" transform="scale(-1)" fill="url(#paint0_diamond_5256_33896)" opacity="1" shape-rendering="crispEdges"/></g></g><rect x="-320" y="-155" width="1040" height="692" data-figma-gradient-fill="{&#34;type&#34;:&#34;GRADIENT_DIAMOND&#34;,&#34;stops&#34;:[{&#34;color&#34;:{&#34;r&#34;:1.0,&#34;g&#34;:1.0,&#34;b&#34;:1.0,&#34;a&#34;:1.0},&#34;position&#34;:0.0},{&#34;color&#34;:{&#34;r&#34;:0.85098040103912354,&#34;g&#34;:0.85098040103912354,&#34;b&#34;:0.85098040103912354,&#34;a&#34;:0.0},&#34;position&#34;:1.0}],&#34;stopsVar&#34;:[],&#34;transform&#34;:{&#34;m00&#34;:-4.0530038635140653e-13,&#34;m01&#34;:-1752.7867431640625,&#34;m02&#34;:1076.3933105468750,&#34;m10&#34;:753.62414550781250,&#34;m11&#34;:1.6198652662280377e-12,&#34;m12&#34;:-232.44302368164062},&#34;opacity&#34;:1.0,&#34;blendMode&#34;:&#34;NORMAL&#34;,&#34;visible&#34;:true}"/>
</mask>
<g mask="url(#mask0_5256_33896)">
<g opacity="0.9">
<circle cx="317.617" cy="280.363" r="0.699952" fill="white" fill-opacity="0.5"/>
<circle cx="73.2973" cy="205.94" r="0.866106" fill="white" fill-opacity="0.3"/>
<circle cx="6.76957" cy="229.394" r="0.639683" fill="white" fill-opacity="0.6"/>
<circle cx="149.496" cy="340.744" r="0.700234" fill="white" fill-opacity="0.4"/>
<circle cx="344.985" cy="302.995" r="0.837128" fill="white" fill-opacity="0.5"/>
<circle cx="2.60843" cy="168.994" r="0.621616" fill="white" fill-opacity="0.6"/>
<circle cx="18.7881" cy="384.669" r="0.818832" fill="white" fill-opacity="0.4"/>
<circle cx="134.096" cy="100.393" r="0.690477" fill="white" fill-opacity="0.6"/>
<circle cx="13.4037" cy="50.7387" r="0.76211" fill="white" fill-opacity="0.5"/>
<circle cx="181.993" cy="292.733" r="0.637879" fill="white" fill-opacity="0.5"/>
<circle cx="260.684" cy="269.012" r="0.596974" fill="white" fill-opacity="0.3"/>
<circle cx="229.999" cy="385.728" r="0.694188" fill="white" fill-opacity="0.5"/>
<circle cx="70.1681" cy="43.57" r="0.69691" fill="white" fill-opacity="0.5"/>
<circle cx="31.1796" cy="381.669" r="0.778728" fill="white" fill-opacity="0.3"/>
<circle cx="237.885" cy="334.416" r="0.882725" fill="white" fill-opacity="0.4"/>
<circle cx="263.168" cy="102.19" r="0.711451" fill="white" fill-opacity="0.6"/>
<circle cx="5.82297" cy="249.757" r="0.876195" fill="white" fill-opacity="0.5"/>
<circle cx="314.122" cy="393.487" r="0.756572" fill="white" fill-opacity="0.3"/>
<circle cx="123.443" cy="115.196" r="0.693902" fill="white" fill-opacity="0.3"/>
<circle cx="373.826" cy="63.6716" r="0.671636" fill="white" fill-opacity="0.5"/>
<circle cx="2.12279" cy="28.8025" r="0.729233" fill="white" fill-opacity="0.4"/>
<circle cx="228.811" cy="96.2495" r="0.689881" fill="white" fill-opacity="0.5"/>
<circle cx="133.578" cy="152.561" r="0.765212" fill="white" fill-opacity="0.4"/>
<circle cx="112.963" cy="391.824" r="0.869681" fill="white" fill-opacity="0.6"/>
<circle cx="206.936" cy="78.518" r="0.718168" fill="white" fill-opacity="0.6"/>
<circle cx="48.4151" cy="358.651" r="0.84679" fill="white" fill-opacity="0.4"/>
<circle cx="76.6113" cy="314.034" r="0.627863" fill="white" fill-opacity="0.4"/>
<circle cx="78.4746" cy="325.369" r="0.715796" fill="white" fill-opacity="0.3"/>
<circle cx="302.379" cy="254.469" r="0.852779" fill="white" fill-opacity="0.6"/>
<circle cx="159.522" cy="320.579" r="0.661517" fill="white" fill-opacity="0.3"/>
<circle cx="43.6912" cy="349.783" r="0.859218" fill="white" fill-opacity="0.6"/>
<circle cx="187.971" cy="228.266" r="0.696622" fill="white" fill-opacity="0.3"/>
<circle cx="355.043" cy="117.11" r="0.831583" fill="white" fill-opacity="0.4"/>
<circle cx="30.6138" cy="183.384" r="0.80469" fill="white" fill-opacity="0.5"/>
<circle cx="51.969" cy="235.523" r="0.848888" fill="white" fill-opacity="0.4"/>
<circle cx="231.884" cy="329.6" r="0.803339" fill="white" fill-opacity="0.3"/>
<circle cx="36.466" cy="8.68227" r="0.735984" fill="white" fill-opacity="0.4"/>
<circle cx="359.754" cy="191.673" r="0.806592" fill="white" fill-opacity="0.4"/>
<circle cx="78.5632" cy="88.0759" r="0.804401" fill="white" fill-opacity="0.4"/>
<circle cx="308.897" cy="250.924" r="0.859109" fill="white" fill-opacity="0.5"/>
<circle cx="354.292" cy="26.9693" r="0.671462" fill="white" fill-opacity="0.6"/>
<circle cx="17.0543" cy="40.1812" r="0.859953" fill="white" fill-opacity="0.6"/>
<circle cx="110.965" cy="271.432" r="0.647362" fill="white" fill-opacity="0.3"/>
<circle cx="243.772" cy="57.9314" r="0.85128" fill="white" fill-opacity="0.6"/>
<circle cx="121.095" cy="265.577" r="0.713183" fill="white" fill-opacity="0.5"/>
<circle cx="271.557" cy="223.647" r="0.813803" fill="white" fill-opacity="0.3"/>
<circle cx="229.498" cy="392.332" r="0.785658" fill="white" fill-opacity="0.4"/>
<circle cx="349.076" cy="38.3294" r="0.784446" fill="white" fill-opacity="0.3"/>
<circle cx="286.221" cy="75.5182" r="0.678364" fill="white" fill-opacity="0.4"/>
<circle cx="130.655" cy="216.532" r="0.802016" fill="white" fill-opacity="0.4"/>
<circle cx="56.6197" cy="211.757" r="0.763236" fill="white" fill-opacity="0.4"/>
<circle cx="273.369" cy="377.004" r="0.849438" fill="white" fill-opacity="0.5"/>
<circle cx="305.715" cy="385.671" r="0.636609" fill="white" fill-opacity="0.5"/>
<circle cx="245.373" cy="84.988" r="0.676482" fill="white" fill-opacity="0.6"/>
<circle cx="161.284" cy="16.291" r="0.648472" fill="white" fill-opacity="0.4"/>
<circle cx="248.356" cy="250.763" r="0.698949" fill="white" fill-opacity="0.6"/>
<circle cx="226.008" cy="313.068" r="0.846621" fill="white" fill-opacity="0.6"/>
<circle cx="8.61861" cy="219.401" r="0.711873" fill="white" fill-opacity="0.5"/>
<circle cx="326.602" cy="63.2129" r="0.804688" fill="white" fill-opacity="0.5"/>
<circle cx="120.592" cy="124.185" r="0.803196" fill="white" fill-opacity="0.5"/>
<circle cx="156.784" cy="57.3714" r="0.883131" fill="white" fill-opacity="0.5"/>
<circle cx="172.61" cy="100.429" r="0.727048" fill="white" fill-opacity="0.6"/>
<circle cx="114.102" cy="253.848" r="0.82322" fill="white" fill-opacity="0.4"/>
<circle cx="103.969" cy="57.2431" r="0.754837" fill="white" fill-opacity="0.5"/>
<circle cx="164.256" cy="338.337" r="0.660223" fill="white" fill-opacity="0.5"/>
<circle cx="27.4631" cy="101.501" r="0.614002" fill="white" fill-opacity="0.4"/>
<circle cx="197.444" cy="266.745" r="0.69723" fill="white" fill-opacity="0.6"/>
<circle cx="181.561" cy="31.2394" r="0.798039" fill="white" fill-opacity="0.6"/>
<circle cx="39.9863" cy="0.956549" r="0.705573" fill="white" fill-opacity="0.3"/>
<circle cx="97.5509" cy="59.7048" r="0.848304" fill="white" fill-opacity="0.5"/>
<circle cx="197.951" cy="260.741" r="0.613189" fill="white" fill-opacity="0.3"/>
<circle cx="97.4485" cy="313.559" r="0.745889" fill="white" fill-opacity="0.4"/>
<circle cx="54.8997" cy="304.161" r="0.819658" fill="white" fill-opacity="0.6"/>
<circle cx="289.733" cy="57.7179" r="0.637861" fill="white" fill-opacity="0.5"/>
<circle cx="345.967" cy="343.048" r="0.634724" fill="white" fill-opacity="0.6"/>
<circle cx="180.299" cy="64.9042" r="0.719579" fill="white" fill-opacity="0.5"/>
<circle cx="-0.777561" cy="166.201" r="0.788845" fill="white" fill-opacity="0.4"/>
<circle cx="252.414" cy="299.22" r="0.613337" fill="white" fill-opacity="0.4"/>
<circle cx="267.43" cy="137.827" r="0.830232" fill="white" fill-opacity="0.4"/>
<circle cx="337.085" cy="1.4754" r="0.632627" fill="white" fill-opacity="0.5"/>
<circle cx="58.9971" cy="75.021" r="0.773981" fill="white" fill-opacity="0.3"/>
<circle cx="78.3735" cy="9.15281" r="0.614725" fill="white" fill-opacity="0.3"/>
<circle cx="121.202" cy="76.2521" r="0.820446" fill="white" fill-opacity="0.5"/>
<circle cx="180.217" cy="330.62" r="0.638211" fill="white" fill-opacity="0.5"/>
<circle cx="197.505" cy="321.267" r="0.758062" fill="white" fill-opacity="0.4"/>
<circle cx="125.12" cy="5.58126" r="0.593954" fill="white" fill-opacity="0.6"/>
<circle cx="53.0762" cy="109.945" r="0.771508" fill="white" fill-opacity="0.3"/>
<circle cx="246.023" cy="161.411" r="0.734636" fill="white" fill-opacity="0.5"/>
<circle cx="215.834" cy="334.863" r="0.737588" fill="white" fill-opacity="0.4"/>
<circle cx="126.992" cy="101.579" r="0.692114" fill="white" fill-opacity="0.5"/>
</g>
<g opacity="0.1">
<g clip-path="url(#clip1_5256_33896)">
<path d="M20.9106 -77.1699V785.817" stroke="white" stroke-width="0.654481"/>
<path d="M62.7974 -77.1699V785.817" stroke="white" stroke-width="0.654481"/>
<path d="M104.684 -77.1699V785.817" stroke="white" stroke-width="0.654481"/>
<path d="M146.571 -77.1699V785.817" stroke="white" stroke-width="0.654481"/>
<path d="M188.458 -77.1699V785.817" stroke="white" stroke-width="0.654481"/>
<path d="M230.344 -77.1699V785.817" stroke="white" stroke-width="0.654481"/>
<path d="M272.231 -77.1699V785.817" stroke="white" stroke-width="0.654481"/>
<path d="M314.118 -77.1699V785.817" stroke="white" stroke-width="0.654481"/>
<path d="M356.005 -77.1699V785.817" stroke="white" stroke-width="0.654481"/>
</g>
<g clip-path="url(#clip2_5256_33896)">
<path d="M-314.184 6.60352L934 6.60352" stroke="white" stroke-width="0.654481"/>
<path d="M-314.184 48.4902L934 48.4902" stroke="white" stroke-width="0.654481"/>
<path d="M-314.184 90.377L934 90.377" stroke="white" stroke-width="0.654481"/>
<path d="M-314.184 132.264L934 132.264" stroke="white" stroke-width="0.654481"/>
<path d="M-314.184 174.15L934 174.15" stroke="white" stroke-width="0.654481"/>
<path d="M-314.184 216.037L934 216.037" stroke="white" stroke-width="0.654481"/>
<path d="M-314.184 257.924L934 257.924" stroke="white" stroke-width="0.654481"/>
<path d="M-314.184 299.811L934 299.811" stroke="white" stroke-width="0.654481"/>
<path d="M-314.184 341.697L934 341.697" stroke="white" stroke-width="0.654481"/>
<path d="M-314.184 383.584L934 383.584" stroke="white" stroke-width="0.654481"/>
</g>
</g>
</g>
</g>
<defs>
<clipPath id="paint0_diamond_5256_33896_clip_path"><rect x="-320" y="-155" width="1040" height="692"/></clipPath><linearGradient id="paint0_diamond_5256_33896" x1="0" y1="0" x2="500" y2="500" gradientUnits="userSpaceOnUse">
<stop stop-color="white"/>
<stop offset="1" stop-color="#D9D9D9" stop-opacity="0"/>
</linearGradient>
<clipPath id="clip0_5256_33896">
<rect width="376" height="394" fill="white"/>
</clipPath>
<clipPath id="clip1_5256_33896">
<rect width="1248.18" height="806.841" fill="white" transform="translate(-314.184 -77.1699)"/>
</clipPath>
<clipPath id="clip2_5256_33896">
<rect width="1248.18" height="806.841" fill="white" transform="translate(-314.184 -77.1699)"/>
</clipPath>
</defs>
</svg>
